<svg width="24" height="24" viewBox="0 0 24 24" fill="none" xmlns="http://www.w3.org/2000/svg">
<path fill-rule="evenodd" clip-rule="evenodd" d="M0 12C0 5.37321 5.37321 0 12 0C18.6268 0 24 5.37321 24 12C24 18.6268 18.6268 24 12 24C5.37321 24 0 18.6268 0 12ZM2.03571 12C2.03571 17.5018 6.49821 21.9643 12 21.9643C17.5018 21.9643 21.9643 17.5018 21.9643 12C21.9643 6.49821 17.5018 2.03571 12 2.03571C6.49821 2.03571 2.03571 6.49821 2.03571 12ZM11.0909 8.19485C10.8498 7.95373 10.7143 7.62671 10.7143 7.28571C10.7143 6.94472 10.8498 6.61769 11.0909 6.37658C11.332 6.13546 11.6591 6 12 6C12.341 6 12.6681 6.13546 12.9092 6.37658C13.1503 6.61769 13.2858 6.94472 13.2858 7.28571C13.2858 7.62671 13.1503 7.95373 12.9092 8.19485C12.6681 8.43597 12.341 8.57143 12 8.57143C11.6591 8.57143 11.332 8.43597 11.0909 8.19485ZM11.2367 10.2857H12.8304C12.9483 10.2857 13.0447 10.3821 13.0447 10.5V17.7857C13.0447 17.9036 12.9483 18 12.8304 18H11.2367C11.1188 18 11.0224 17.9036 11.0224 17.7857V10.5C11.0224 10.3821 11.1188 10.2857 11.2367 10.2857Z" fill="currentColor"></path>
</svg>